<?xml version="1.0" encoding="UTF-8"?>
<svg version="1.1" xmlns="http://www.w3.org/2000/svg" width="64" height="64">
<path d="M0 0 C21.12 0 42.24 0 64 0 C64 21.12 64 42.24 64 64 C42.88 64 21.76 64 0 64 C0 42.88 0 21.76 0 0 Z " fill="#E9E9E9" transform="translate(0,0)"/>
<path d="M0 0 C6.6 0 13.2 0 20 0 C19.67 2.97 19.34 5.94 19 9 C19.33 9.99 19.66 10.98 20 12 C19.34 12 18.68 12 18 12 C17.67 13.32 17.34 14.64 17 16 C12.38 16 7.76 16 3 16 C-0.11766142 9.89457971 0 7.50423921 0 0 Z " fill="#020202" transform="translate(22,37)"/>
<path d="M0 0 C3.15139643 1.17216575 6.31540504 2.08723301 9.5625 2.953125 C9.5625 4.273125 9.5625 5.593125 9.5625 6.953125 C8.9025 6.953125 8.2425 6.953125 7.5625 6.953125 C7.5625 19.493125 7.5625 32.033125 7.5625 44.953125 C7.2325 44.953125 6.9025 44.953125 6.5625 44.953125 C6.5625 32.083125 6.5625 19.213125 6.5625 5.953125 C4.5825 5.623125 2.6025 5.293125 0.5625 4.953125 C-0.72847889 4.58056373 -2.010842 4.17534054 -3.27734375 3.7265625 C-3.94830078 3.4996875 -4.61925781 3.2728125 -5.31054688 3.0390625 C-6.68578638 2.56547009 -8.05823525 2.0836945 -9.42773438 1.59375 C-17.06203651 -0.95345723 -23.29933573 1.05520089 -30.6875 3.515625 C-38.04700413 5.953125 -38.04700413 5.953125 -41.4375 5.953125 C-41.4375 18.823125 -41.4375 31.693125 -41.4375 44.953125 C-41.7675 44.953125 -42.0975 44.953125 -42.4375 44.953125 C-42.4375 32.413125 -42.4375 19.873125 -42.4375 6.953125 C-43.0975 6.953125 -43.7575 6.953125 -44.4375 6.953125 C-44.4375 5.633125 -44.4375 4.313125 -44.4375 2.953125 C-41.6054225 1.99094483 -38.77193873 1.0333042 -35.9375 0.078125 C-35.14601563 -0.19128906 -34.35453125 -0.46070313 -33.5390625 -0.73828125 C-20.55480649 -5.10184269 -12.87457641 -4.90111716 0 0 Z " fill="#222222" transform="translate(49.4375,12.046875)"/>
<path d="M0 0 C0.598125 0.185625 1.19625 0.37125 1.8125 0.5625 C4.16408762 1.22093687 4.16408762 1.22093687 7 0 C7 3.96 7 7.92 7 12 C9.8771875 12.12375 9.8771875 12.12375 12.8125 12.25 C18.492157 12.49428632 18.492157 12.49428632 20.86328125 14.85546875 C22.40627033 17.76646877 22.41447549 19.7532753 22 23 C20.625 24.875 20.625 24.875 19 26 C18.34 26 17.68 26 17 26 C17 25.34 17 24.68 17 24 C16.34 23.67 15.68 23.34 15 23 C15.66 20.03 16.32 17.06 17 14 C10.4 14 3.8 14 -3 14 C-2.01 13.34 -1.02 12.68 0 12 C0.36498034 9.10391601 0.36498034 9.10391601 0.1875 5.875 C0.16042969 4.77929688 0.13335938 3.68359375 0.10546875 2.5546875 C0.05326172 1.29011719 0.05326172 1.29011719 0 0 Z " fill="#8E8E8E" transform="translate(25,23)"/>
<path d="M0 0 C9.9 0 19.8 0 30 0 C29.01 1.485 29.01 1.485 28 3 C25.52563477 3.38818359 25.52563477 3.38818359 22.44140625 3.3984375 C21.33345703 3.40230469 20.22550781 3.40617187 19.08398438 3.41015625 C17.34084961 3.39275391 17.34084961 3.39275391 15.5625 3.375 C14.40427734 3.38660156 13.24605469 3.39820313 12.05273438 3.41015625 C10.94349609 3.40628906 9.83425781 3.40242188 8.69140625 3.3984375 C7.67248291 3.39505371 6.65355957 3.39166992 5.60375977 3.38818359 C3 3 3 3 0 0 Z " fill="#030303" transform="translate(17,54)"/>
<path d="M0 0 C4 2 4 2 5 3 C5.4664311 8.3639576 5.4664311 8.3639576 3.625 10.875 C2 12 2 12 0 12 C0 11.34 0 10.68 0 10 C-0.66 9.67 -1.32 9.34 -2 9 C-1.34 6.03 -0.68 3.06 0 0 Z " fill="#151515" transform="translate(42,37)"/>
<path d="M0 0 C0.99 0.33 1.98 0.66 3 1 C3 4.3 3 7.6 3 11 C2.01 11 1.02 11 0 11 C0 7.37 0 3.74 0 0 Z " fill="#323232" transform="translate(35,23)"/>
<path d="M0 0 C0.99 0 1.98 0 3 0 C3 2.31 3 4.62 3 7 C1.68 7.33 0.36 7.66 -1 8 C-0.67 5.36 -0.34 2.72 0 0 Z " fill="#E5E5E5" transform="translate(41,39)"/>
</svg>
